<?xml version="1.0" encoding="UTF-8" standalone="no"?>
<!-- Created with Inkscape (http://www.inkscape.org/) -->

<svg
   width="210mm"
   height="297mm"
   viewBox="0 0 210 297"
   version="1.1"
   id="svg1"
   xml:space="preserve"
   inkscape:version="1.4.2 (f4327f4, 2025-05-13)"
   sodipodi:docname="igen_svg.svg"
   xmlns:inkscape="http://www.inkscape.org/namespaces/inkscape"
   xmlns:sodipodi="http://sodipodi.sourceforge.net/DTD/sodipodi-0.dtd"
   xmlns="http://www.w3.org/2000/svg"
   xmlns:svg="http://www.w3.org/2000/svg"><sodipodi:namedview
     id="namedview1"
     pagecolor="#505050"
     bordercolor="#eeeeee"
     borderopacity="1"
     inkscape:showpageshadow="0"
     inkscape:pageopacity="0"
     inkscape:pagecheckerboard="0"
     inkscape:deskcolor="#505050"
     inkscape:document-units="mm"
     inkscape:zoom="2.0792508"
     inkscape:cx="435.73387"
     inkscape:cy="436.93623"
     inkscape:window-width="2560"
     inkscape:window-height="1369"
     inkscape:window-x="-8"
     inkscape:window-y="-8"
     inkscape:window-maximized="1"
     inkscape:current-layer="layer1" /><defs
     id="defs1" /><g
     inkscape:label="Layer 1"
     inkscape:groupmode="layer"
     id="layer1"><path
       style="fill:#000000"
       d="m 72.263295,168.79961 c -0.81269,-0.29017 -1.30635,-0.73055 -1.71222,-1.52741 -0.65056,-1.27728 -0.16691,-2.98545 1.06002,-3.74373 l 0.28815,-0.17809 v -4.43247 -4.43247 l -1.56579,-1.4157 -1.56578,-1.41569 -0.0217,-6.14235 -0.0217,-6.14236 -1.40901,-0.4003 c -1.41027,-0.40067 -3.28031,-1.06331 -4.29654,-1.52246 -0.29748,-0.13441 -0.57371,-0.24438 -0.61383,-0.24438 -0.0401,0 -0.073,0.7254 -0.073,1.61202 v 1.61202 l 1.6961,1.86108 c 0.93286,1.0236 1.73296,1.95802 1.778,2.0765 0.0482,0.12681 0.0819,1.73729 0.0819,3.91597 v 3.70056 l 0.3036,0.1635 c 0.16698,0.0899 0.48814,0.36542 0.71369,0.61221 1.33884,1.4649 0.89038,3.7265 -0.91519,4.61538 -0.49839,0.24535 -0.64343,0.27739 -1.24332,0.27461 -0.56173,-0.003 -0.77035,-0.0447 -1.20695,-0.2438 -1.20384,-0.54886 -1.92409,-1.86011 -1.71783,-3.1274 0.13488,-0.82878 0.56084,-1.50278 1.24947,-1.97706 0.28577,-0.19681 0.43504,-0.35435 0.40643,-0.42892 -0.0249,-0.0648 -0.0452,-1.59427 -0.0452,-3.39878 v -3.28093 l -1.57535,-1.72865 c -0.86645,-0.95076 -1.64735,-1.84295 -1.73535,-1.98265 -0.14802,-0.23497 -0.16003,-0.45166 -0.16032,-2.89242 l -3.2e-4,-2.63842 -0.68117,-0.3929 c -0.49923,-0.28796 -0.73102,-0.37733 -0.86783,-0.33462 -0.10267,0.032 -1.58664,0.75797 -3.29772,1.61315 -1.71108,0.85519 -3.14742,1.55488 -3.19187,1.55488 -0.12824,0 -3.0357,-2.46191 -3.66566,-3.10391 l -0.57059,-0.5815 4.54992,-4.54631 4.54992,-4.5463 0.84667,0.77238 c 4.44193,4.0522 9.54339,6.42855 15.53634,7.2371 1.57576,0.21259 5.41157,0.21344 6.94266,0.002 6.33237,-0.87643 11.64354,-3.43489 16.11678,-7.76366 4.795655,-4.64077 7.669305,-10.63988 8.348795,-17.42913 0.12872,-1.28612 0.10713,-4.14909 -0.0421,-5.58144 -0.62843,-6.032096 -3.29708,-11.876816 -7.403725,-16.215216 l -0.66825,-0.70596 4.564945,-4.564358 4.56494,-4.564359 0.38884,0.379068 c 0.63674,0.620736 3.25511,3.779376 3.25511,3.926757 0,0.0749 -0.72583,1.587444 -1.61296,3.361211 l -1.61295,3.225031 0.58623,1.02904 c 1.4384,2.52487 2.45172,4.94155 3.23604,7.7177 0.19734,0.6985 0.39435,1.31539 0.4378,1.37086 0.0434,0.0555 1.59065,0.60297 3.43824,1.21665 1.8476,0.61368 3.40535,1.158836 3.46167,1.211466 0.0568,0.053 0.16847,0.68035 0.25069,1.40802 0.30314,2.68288 0.1314,9.33509 -0.25069,9.71021 -0.0563,0.0553 -1.60736,0.60278 -3.44674,1.21663 -1.83938,0.61385 -3.3869,1.15915 -3.43892,1.21179 -0.052,0.0526 -0.26843,0.71073 -0.48091,1.46243 -0.71442,2.52737 -1.74768,5.01184 -3.06616,7.37258 l -0.72073,1.29046 1.6097,3.21852 c 0.88532,1.77018 1.60881,3.28538 1.60773,3.36711 -0.003,0.20567 -2.11143,2.72974 -3.29629,3.94553 -0.94209,0.96669 -4.2981,3.88076 -4.52997,3.93344 -0.0622,0.0142 -1.564645,-0.70023 -3.338695,-1.5875 -1.77405,-0.88726 -3.257,-1.6132 -3.29545,-1.6132 -0.0384,0 -0.54347,0.27255 -1.12227,0.60567 -1.11497,0.6417 -2.62739,1.38241 -3.78286,1.85268 l -0.6985,0.28429 v 5.26697 5.26696 l 0.37262,0.21838 c 1.58897,0.93119 1.89491,3.16548 0.61828,4.51533 -0.23212,0.24543 -0.63575,0.55119 -0.89697,0.67948 -0.41149,0.20208 -0.57672,0.23324 -1.23693,0.23324 -0.64732,0 -0.83397,-0.0337 -1.2402,-0.2242 -1.19968,-0.56245 -1.90536,-1.90899 -1.66939,-3.18545 0.14922,-0.80719 0.53868,-1.41115 1.23655,-1.9176 l 0.36619,-0.26574 -0.004,-4.8178 c -0.002,-2.64979 -0.0181,-4.83176 -0.0351,-4.84881 -0.0602,-0.0602 -1.94834,0.4838 -2.04647,0.58962 -0.0547,0.059 -0.16153,0.29507 -0.23733,0.52456 -0.11957,0.36199 -0.13782,0.9528 -0.13782,4.46127 v 4.04402 l -1.60662,1.42306 -1.60663,1.42307 -0.002,2.80712 -0.002,2.80712 0.36691,0.21502 c 2.02691,1.18785 1.8707,4.20371 -0.26972,5.20721 -0.40622,0.19045 -0.59288,0.22419 -1.24019,0.22419 -0.66281,0 -0.82471,-0.0308 -1.24376,-0.23658 -0.2872,-0.14103 -0.65237,-0.42324 -0.90419,-0.69878 -1.23892,-1.35557 -0.98873,-3.38967 0.54686,-4.44619 l 0.37342,-0.25692 v -3.32684 -3.32685 l 0.52917,-0.502 c 0.29104,-0.27611 0.99589,-0.91519 1.56633,-1.42018 l 1.03717,-0.91817 v -0.50767 -0.50766 l -0.27517,0.0481 c -1.51307,0.26478 -6.42806,0.35648 -8.37268,0.15621 -0.54203,-0.0558 -1.21831,-0.12583 -1.50283,-0.15557 l -0.51732,-0.0541 v 2.07998 2.07997 l 1.60866,1.45217 1.60867,1.45217 v 4.8962 4.89621 l 0.37263,0.21837 c 1.58896,0.9312 1.8949,3.16549 0.61827,4.51534 -0.58273,0.61615 -1.17334,0.89132 -1.99516,0.92957 -0.47665,0.0222 -0.76253,-0.0113 -1.08702,-0.12711 z m 1.85091,-1.94773 c 0.29365,-0.31481 0.32504,-0.39254 0.32504,-0.80489 0,-1.33119 -1.50918,-1.79302 -2.31822,-0.7094 -0.23627,0.31646 -0.22853,0.94904 0.0165,1.34545 0.25923,0.41943 0.62783,0.58911 1.19355,0.54943 0.40913,-0.0287 0.49289,-0.0694 0.78317,-0.38059 z m 6.38574,-6.07903 c 0.40022,-0.18992 0.66053,-0.64292 0.66053,-1.14949 0,-1.22418 -1.61142,-1.6948 -2.29571,-0.67048 -0.13964,0.20903 -0.19219,0.41078 -0.19219,0.73789 0,0.38561 0.0388,0.49441 0.27054,0.75832 0.14879,0.16947 0.34882,0.33983 0.4445,0.37858 0.28604,0.11585 0.80675,0.0902 1.11233,-0.0548 z m -15.20639,-4.92295 c 0.6785,-0.3409 0.91932,-1.33113 0.45727,-1.88025 -0.73977,-0.87917 -2.00518,-0.58401 -2.26745,0.52888 -0.08,0.33964 0.0788,0.83731 0.35002,1.09668 0.43625,0.41718 0.95622,0.50788 1.46016,0.25469 z m 23.63731,-3.81469 c 0.29366,-0.31481 0.32504,-0.39253 0.32504,-0.80488 0,-1.3312 -1.50918,-1.79302 -2.31821,-0.7094 -0.23627,0.31645 -0.22853,0.94904 0.0165,1.34544 0.25922,0.41944 0.62783,0.58912 1.19355,0.54944 0.40913,-0.0287 0.49289,-0.0694 0.78316,-0.3806 z M 45.345715,132.4397 c -1.09505,-1.11068 -2.82581,-3.14811 -2.82581,-3.3265 0,-0.0677 0.72997,-1.58362 1.62216,-3.36871 l 1.62216,-3.24562 -0.57976,-1.00917 c -1.38791,-2.41592 -2.53642,-5.20944 -3.3342,-8.10979 -0.13918,-0.50598 -0.26452,-0.92939 -0.27854,-0.94091 -0.014,-0.0115 -1.56853,-0.53381 -3.45448,-1.16063 -2.97859,-0.98998 -3.44197,-1.16666 -3.5277,-1.34509 -0.19891,-0.41398 -0.39367,-3.17548 -0.39367,-5.58175 0,-2.20105 0.18449,-5.046696 0.35905,-5.538066 0.0517,-0.14565 0.68216,-0.38647 3.56617,-1.36226 l 3.50331,-1.18534 0.15513,-0.635 c 0.64286,-2.63153 1.9706,-5.89761 3.40749,-8.382 l 0.56313,-0.97366 -1.61512,-3.238792 c -0.88832,-1.781333 -1.61513,-3.312459 -1.61513,-3.402501 0,-0.617152 7.43565,-8.048377 8.05317,-8.048377 0.0883,0 1.34118,0.59055 2.78417,1.312334 1.44298,0.721783 2.64289,1.312333 2.66647,1.312333 0.0236,0 0.0429,-4.28625 0.0429,-9.525 v -9.524999 l 2.89983,0.0019 2.89983,0.0019 1.12184,1.228366 1.12183,1.228366 v 6.974765 6.974766 l 0.55033,-0.178927 0.55034,-0.178927 V 58.272619 45.332896 l 1.02425,-1.22468 1.02426,-1.224681 h 0.58441 0.58441 v -0.381 -0.381 h 1.905 1.905 v 0.381 0.381 h 0.33867 0.33867 v 7.196667 7.196666 h 1.43933 1.43933 v 2.951272 2.951272 l 0.52042,0.05439 c 0.28623,0.02992 0.61008,0.05439 0.71967,0.05439 h 0.19925 v -5.164666 -5.164667 h 0.33866 0.33867 v -0.465666 c 0,-0.409223 0.0205,-0.465667 0.16933,-0.465667 0.15197,0 0.16934,-0.05644 0.16934,-0.550333 v -0.550334 h 0.29899 c 0.35114,0 0.35355,-0.0049 0.45267,-0.911515 0.0421,-0.384918 0.12189,-0.754527 0.17735,-0.821355 0.0588,-0.0709 0.13092,-0.625743 0.17306,-1.33215 0.0397,-0.665856 0.13181,-1.534496 0.20463,-1.930313 0.0728,-0.395816 0.13734,-0.910166 0.14338,-1.143 l 0.011,-0.423333 0.0779,0.508 c 0.0428,0.2794 0.13319,0.855619 0.2008,1.280487 0.0676,0.424868 0.12293,1.235834 0.12293,1.802146 0,0.723325 0.0345,1.085447 0.11584,1.217179 0.0637,0.103137 0.15842,0.50461 0.21046,0.892164 0.111,0.826464 0.12728,0.86169 0.39837,0.86169 0.19792,0 0.20667,0.0233 0.20667,0.550334 0,0.493889 0.0174,0.550333 0.16933,0.550333 0.14676,0 0.16933,0.05644 0.16933,0.423333 v 0.423334 h 0.381 0.381 v 7.048456 7.048456 l 0.59763,1.792956 c 0.32869,0.986126 0.65254,1.838536 0.71966,1.894244 0.10615,0.08809 0.12205,-1.004068 0.12205,-8.382441 v -8.483728 l 0.48683,0.345458 0.48683,0.345459 0.023,-1.56643 c 0.022,-1.496397 0.0305,-1.56643 0.1905,-1.56643 0.16127,0 0.16753,0.06343 0.16927,1.7145 l 0.002,1.7145 0.32922,0.232833 c 0.18107,0.128058 0.35171,0.232833 0.37919,0.232833 0.0275,0 0.05,-0.4953 0.05,-1.100666 0,-0.921926 0.0206,-1.100667 0.127,-1.100667 0.10706,0 0.127,0.192988 0.127,1.22889 v 1.22889 l 0.889,0.650384 0.889,0.650384 v 7.606121 7.60612 l 0.1905,0.07051 0.1905,0.07051 0.0423,-3.862072 0.0423,-3.862071 0.48733,-0.740833 0.48733,-0.740833 h 1.39589 1.39589 l 0.0218,5.521182 0.0218,5.521183 0.7133,0.418742 0.7133,0.418742 3.24515,-1.621925 c 1.78484,-0.892058 3.30507,-1.621925 3.378295,-1.621925 0.19283,0 2.38337,1.865849 3.42138,2.914242 l 0.8881,0.896984 -4.646775,4.647357 -4.64678,4.647357 -0.98265,-0.890721 c -4.36419,-3.955903 -9.3972,-6.280871 -15.37599,-7.102836 -1.34063,-0.18431 -5.13073,-0.213125 -6.39233,-0.0486 -5.15329,0.672047 -9.32431,2.276766 -13.29857,5.116359 -2.29176,1.637454 -4.75267,4.096247 -6.39486,6.389367 -2.70132,3.77205 -4.37582,8.07737 -4.99869,12.852156 -0.18114,1.38864 -0.20685,4.91555 -0.0457,6.26533 0.73901,6.18848 3.08198,11.37606 7.1929,15.92582 l 0.84917,0.93981 -4.6276,4.62702 c -2.54517,2.54486 -4.64713,4.62702 -4.67102,4.62702 -0.0239,0 -0.46602,-0.42863 -0.98252,-0.9525 z m 22.57419,-6.35824 v -0.62208 l 0.99484,-0.0532 c 0.54716,-0.0292 1.3094,-0.12979 1.69387,-0.22344 1.71639,-0.41809 2.34017,-1.12815 2.71117,-3.08617 0.13462,-0.71044 0.14579,-1.9602 0.14579,-16.30575 0,-14.345546 -0.0112,-15.595296 -0.14579,-16.305736 -0.0802,-0.42318 -0.22952,-0.98822 -0.33185,-1.25565 -0.50519,-1.32013 -1.80189,-1.97735 -4.21312,-2.13537 l -0.85491,-0.056 v -0.62227 -0.622275 h 8.763 8.763 v 0.635005 0.635 l -0.4445,4.9e-4 c -0.62284,7e-4 -1.94991,0.21237 -2.6035,0.41526 -1.14697,0.35605 -1.71366,0.9139 -2.06808,2.03582 -0.39433,1.24829 -0.39748,1.40123 -0.36581,17.783746 0.033,17.07614 -0.004,15.94465 0.5619,17.145 0.38612,0.81891 0.88769,1.24122 1.85709,1.56362 0.6164,0.205 1.96896,0.42482 2.6184,0.42555 l 0.4445,5e-4 v 0.635 0.635 h -8.763 -8.763 z"
       id="path9" /></g></svg>
